<svg width="535" height="840" viewBox="0 0 535 840" fill="none" xmlns="http://www.w3.org/2000/svg">
<path d="M37.067 33.3223C37.067 14.9189 50.3433 0 66.7206 0H483.106C499.484 0 512.76 14.9189 512.76 33.3223V806.678C512.76 825.081 499.484 840 483.106 840H66.7205C50.3433 840 37.067 825.081 37.067 806.678V33.3223Z" fill="#191919"/>
<path d="M37.067 771.967H512.76V806.678H37.067V771.967Z" fill="white"/>
<path d="M469.386 704.231C444.944 726.905 441.492 757.858 406.277 761.853C385.747 764.182 374.715 755.67 354.854 750.534C303.214 737.182 259.022 742.618 227.467 704.231C199.614 670.348 183.421 632.952 209.936 598.248C236.011 564.12 279.304 576.753 325.637 571.495C371.808 566.255 401.32 556.951 444.844 571.495C488.962 586.237 538.236 601.055 534.833 642.493C532.132 675.387 495.173 680.31 469.386 704.231Z" fill="white"/>
<path d="M0 591.36H398.294C398.294 591.36 317.834 566.348 271.978 535.564C247.149 518.896 233.287 511.068 211.665 486.572C198.66 471.838 192.92 459.82 188.905 438.941C184.811 417.649 186.328 403.785 192.319 383.145C198.301 362.535 228.735 324.627 218.493 336.875C208.251 349.123 207.113 349.123 207.113 349.123C207.113 349.123 199.963 354.714 192.319 351.845C188.079 350.253 185.76 348.692 183.215 345.04C177.525 336.875 188.905 304.214 179.801 324.627C177.593 329.578 174.14 332.281 170.698 335.514C166.154 339.781 155.904 334.153 155.904 334.153C155.904 334.153 149.969 332.104 149.076 324.627C147.938 315.101 160.456 304.214 160.456 304.214C160.456 304.214 132.006 308.296 121.764 315.101C111.522 321.905 109.529 328.372 102.419 336.875C95.308 345.378 76.2449 373.619 66.0031 414.445C55.7612 455.272 75.9803 353.071 95.5906 321.905C115.906 289.62 166.146 260.665 166.146 260.665C166.146 260.665 133.346 265.821 114.936 275.635C66.1249 301.657 52.788 345.985 29.5876 403.558C2.49497 470.79 0 591.36 0 591.36Z" fill="white"/>
<path d="M100.696 370.943C108.077 353.864 126.61 332.817 126.61 332.817C126.61 332.817 106.939 381.063 104.076 414.516C102.718 430.384 101.954 439.62 104.076 455.365C107.401 480.038 112.577 494.38 125.483 513.916C137.016 531.375 146.336 538.845 162.663 549.319C179.751 560.28 209.984 567.02 209.984 567.02C209.984 567.02 198.291 567.671 190.831 567.02C170.816 565.275 158.784 562.49 141.256 550.681C126.542 540.766 118.49 533.106 108.583 516.639C99.7809 502.01 96.677 491.901 92.809 474.428C88.4743 454.847 87.9767 442.879 89.4289 422.686C90.9259 401.869 92.6913 389.463 100.696 370.943Z" fill="#181818"/>
<path d="M126.61 417.239C128.527 398.811 142.383 373.666 142.383 373.666C142.383 373.666 135.372 401.606 135.623 419.962C135.852 436.75 137.188 446.601 142.383 462.173C150.452 486.359 161.237 496.517 177.31 513.916C199.182 537.591 242.658 558.85 242.658 558.85C242.658 558.85 210.548 546.014 191.957 532.979C170.025 517.601 143.51 486.683 141.256 483.96C139.003 481.237 131.74 464.882 128.863 451.28C126.13 438.359 125.233 430.471 126.61 417.239Z" fill="#181818"/>
<path d="M166.265 301.371C164.397 297.007 164.003 293.186 164.003 289.093C164.003 285.001 166.67 296.503 169.657 300.006C171.94 302.684 173.32 304.701 176.441 305.463C180.547 306.465 186.618 301.371 186.618 301.371C186.618 301.371 188.035 306.892 190.01 309.555C192.384 312.756 194.366 315.103 197.925 315.012C200.887 314.936 202.284 312.971 204.71 310.92C209.341 307.004 213.756 297.278 213.756 297.278C213.756 297.278 214.774 304.654 217.148 308.191C220.254 312.821 223.519 314.931 228.455 315.012C236.267 315.141 243.155 298.642 243.155 298.642C243.155 298.642 247.348 305.425 251.07 308.191C256.453 312.192 260.587 312.704 266.9 312.284C271.927 311.949 275.218 311.682 279.338 308.191C285.649 302.845 284.992 278.18 287.253 286.365C289.515 294.55 289.515 291.822 289.515 297.278C289.515 302.735 289.612 303.364 288.384 306.827C287.027 310.653 285.523 312.57 282.73 315.012C278.997 318.276 276.004 318.482 271.423 319.104C265.054 319.97 261.195 319.005 255.169 316.376C249.534 313.918 242.024 306.827 242.024 306.827C242.024 306.827 241.623 310.272 240.893 312.284C239.759 315.409 238.771 317.302 236.37 319.104C233.348 321.374 230.873 320.813 227.324 320.469C223.149 320.063 220.355 319.628 217.148 316.376C214.71 313.904 212.625 308.191 212.625 308.191C212.625 308.191 210.21 312.739 208.102 315.012C205.448 317.874 203.73 320.044 200.187 320.469C196.988 320.852 195.105 319.574 192.272 317.74C188.42 315.247 184.357 308.191 184.357 308.191C184.357 308.191 181.062 310.563 178.703 310.92C176.038 311.323 174.308 311.036 171.919 309.555C168.851 307.654 167.848 305.067 166.265 301.371Z" fill="white"/>
<path d="M412.442 599.802H361.997C361.997 599.802 379.74 569.938 386.832 548.772C393.475 528.942 395.491 517.019 397.697 496.07C400.055 473.672 397.697 438.348 397.697 438.348C397.697 438.348 375.585 434.983 361.997 438.348C351.409 440.971 336.387 450.06 336.387 450.06L333.283 435.839L319.313 459.262L293.703 472.647C293.703 472.647 291.737 458.622 293.703 450.06C296.632 437.304 301.99 430.604 311.553 422.454C322.155 413.417 330.178 409.251 344.148 409.906C358.117 410.56 392.264 422.454 392.264 422.454L359.669 387.319L361.997 374.771L346.476 378.117L311.553 357.203C311.553 357.203 336.707 347.346 352.684 350.511C363.37 352.628 369.402 355.495 378.295 362.223C389.031 370.344 393.859 377.349 400.025 389.829C403.692 397.25 406.505 408.735 407.792 414.581C407.946 412.285 408.999 408.843 412.442 404.05C419.716 393.922 426.122 388.244 433.396 378.117C440.67 367.989 448.918 366.774 456.678 363.896C471.605 358.359 478.747 357.561 493.93 362.223C506.628 366.121 522.644 381.463 522.644 381.463L489.273 389.829L470.648 381.463L471.424 396.521L449.694 406.559L437.276 398.194V414.925L416.322 429.146C416.322 429.146 439.755 428.164 453.574 433.329C467.476 438.525 476.377 442.545 485.393 455.079C494.202 467.325 496.594 477.235 497.034 492.724C497.434 506.822 489.273 527.859 489.273 527.859L472.976 499.416L470.648 475.156L459.782 482.685L437.276 455.079L416.322 444.204C416.322 444.204 422.421 484.862 422.531 511.128C422.677 546.016 412.442 599.802 412.442 599.802Z" fill="white"/>
<circle cx="405" cy="111" r="75" fill="white"/>
</svg>
