<svg width="34" height="81" viewBox="0 0 34 81" fill="none" xmlns="http://www.w3.org/2000/svg">
<path d="M17.4415 22.9934C19.9313 22.9934 21.9543 22.6146 23.5105 21.8571C25.0666 21.0996 26.2004 20.0301 26.9117 18.6487C27.6676 17.2673 28.0455 15.6631 28.0455 13.8361C28.0455 10.9397 27.2007 8.68936 25.5112 7.08517C23.8662 5.48098 21.1763 4.67889 17.4415 4.67889H6.30402V22.9934H17.4415ZM33.3141 13.8361C33.3141 15.6631 33.0029 17.4233 32.3805 19.1166C31.8025 20.7653 30.8688 22.2359 29.5794 23.5281C28.29 24.8204 26.645 25.8453 24.6442 26.6028C22.6435 27.3158 20.2426 27.6723 17.4415 27.6723H6.30402V46.7889H0.96869V0H17.4415C21.0873 0 24.0662 0.623852 26.3782 1.87155C28.7346 3.11926 30.4686 4.79029 31.5802 6.88465C32.7361 8.97901 33.3141 11.2962 33.3141 13.8361Z" fill="#090909"/>
<path d="M33.1696 80.9058V31.7774H25.6335V74.2216H11.5615V80.9058H33.1696Z" fill="#090909"/>
<path d="M2.42765 53.073L3.80032 54.9781C5.63658 53.8101 7.52219 53.3981 9.45713 53.7421C11.3921 54.0862 12.9696 55.1049 14.1898 56.7983C15.4735 58.5799 15.9554 60.5124 15.6356 62.5957C15.3207 64.6487 14.2832 66.3121 12.5232 67.5859C10.816 68.8215 8.94309 69.2512 6.90451 68.8748C4.86592 68.4984 3.19842 67.4106 1.90201 65.6113C0.554765 63.7415 -0.0767638 61.6758 0.0074277 59.4141C0.109219 57.1397 0.915959 55.026 2.42765 53.073Z" fill="black"/>
</svg>
