<svg width="524" height="540" viewBox="0 0 524 540" fill="none" xmlns="http://www.w3.org/2000/svg">
<path d="M114.524 519.606C103.784 520.259 91.634 521.504 85.8846 526.82C84.5286 528.065 83.6608 529.53 83.9319 530.995C84.854 535.331 94.5632 536.579 102.103 536.741C207.71 539.127 313.481 535.062 419.142 535.874C450.494 536.091 482.986 536.689 511.896 529.64C517.101 528.392 523.068 525.462 520.52 522.536C518.783 520.583 514.335 520.259 510.538 520.149C456.731 518.578 402.924 517.385 349.062 516.625C321.888 516.246 294.659 515.975 267.484 515.758C245.788 515.593 225.447 517.708 203.697 517.44C173.918 517.113 144.14 517.873 114.524 519.606Z" fill="url(#paint0_linear_39_137)"/>
<path d="M114.524 519.606C103.784 520.259 91.634 521.504 85.8846 526.82C84.5286 528.065 83.6608 529.53 83.9319 530.995C84.854 535.331 94.5632 536.579 102.103 536.741C207.71 539.127 313.481 535.062 419.142 535.874C450.494 536.091 482.986 536.689 511.896 529.64C517.101 528.392 523.068 525.462 520.52 522.536C518.783 520.583 514.335 520.259 510.538 520.149C456.731 518.578 402.924 517.385 349.062 516.625C321.888 516.246 294.659 515.975 267.484 515.758C245.788 515.593 225.447 517.708 203.697 517.44C173.918 517.113 144.14 517.873 114.524 519.606Z" fill="url(#paint1_linear_39_137)"/>
<path d="M216.347 490.854C210.706 492.803 204.847 490.854 199.911 486.298C215.642 441.077 210.054 392.599 228.659 347.973C230.341 344.016 232.239 340.003 235.602 336.695C242.111 330.351 260.879 327.693 258.384 338.865C255.834 350.412 249.434 362.178 245.637 373.567C237.446 398.239 230.449 423.127 224.754 448.177C221.554 462.331 218.733 476.59 216.347 490.854Z" fill="#E2CBB7"/>
<path d="M292.375 495.248C288.036 495.846 283.588 495.953 279.195 495.629C278.761 445.849 275.615 396.072 269.702 346.512C269.16 342.121 268.672 337.619 270.191 333.39C273.499 324.336 289.663 320.322 295.846 329.81C301.162 337.946 297.637 352.801 297.745 361.531C298.071 389.999 297.42 418.467 295.901 446.881C295.033 463.038 293.894 479.145 292.375 495.248Z" fill="#E2CBB7"/>
<path d="M250.899 121.385C246.994 116.126 241.244 112.33 237.61 106.853C234.464 102.136 233.162 96.0627 235.061 90.7487C236.959 85.4351 242.492 81.3683 248.078 82.0732L242.004 81.7476C236.2 83.3743 229.691 85.5434 227.304 91.1284C225.568 95.1952 226.708 99.8586 227.575 104.142C228.877 110.324 229.636 116.83 228.009 122.958C226.762 127.621 224.212 131.851 222.585 136.405C220.958 140.96 220.361 146.328 222.965 150.449C225.189 153.92 229.365 155.817 233.488 156.034C237.61 156.251 241.678 154.896 245.421 153.16C248.675 151.642 251.875 149.636 253.882 146.654C255.944 143.509 256.54 139.605 256.269 135.863C255.889 130.603 253.991 125.561 250.899 121.385Z" fill="#534741"/>
<path d="M344.132 34.6774C357.096 82.0147 352.27 81.6894 343.427 108.91C341.745 114.115 337.731 122.791 335.127 127.563C330.628 135.696 323.683 142.04 316.795 148.276C315.385 149.578 313.866 150.879 312.076 151.584C310.449 152.18 308.713 152.18 306.977 151.909C301.825 151.042 297.485 147.137 295.641 142.312C293.417 136.51 296.834 134.286 301.228 131.033C309.907 124.581 313.975 118.616 321.026 110.157C324.987 105.439 327.374 99.5831 329.541 93.7812C335.075 79.1407 337.679 79.0867 337.462 57.1802C337.407 53.3843 334.91 41.4552 333.177 38.0393C331.116 34.0808 329.651 30.6647 328.186 27.357C327.102 26.1641 326.559 23.6698 326.18 22.6396C325.42 20.579 324.117 18.6812 322.491 17.1629C321.568 16.3496 320.484 15.5905 320.267 14.3975C320.213 13.9638 320.213 13.5842 320.104 13.1504C319.995 12.7166 319.724 12.337 319.507 12.0117C318.965 11.2526 318.314 10.6018 317.609 10.0054C317.121 9.57161 316.578 9.1378 316.307 8.54134C315.819 7.34843 315.602 4.09501 316.47 3.06475C317.066 2.30562 320.918 -0.242912 322.328 0.028207C323.304 0.190879 324.333 -0.188686 325.31 0.136657C326.504 0.516224 327.642 1.05846 328.674 1.76337C329.813 2.57673 330.79 3.55278 331.711 4.52879C334.859 7.83647 335.075 14.506 337.679 18.3017L344.132 34.6774Z" fill="#E2CBB7"/>
<path d="M274.324 128.754C282.677 128.049 292.169 125.989 298.678 131.031C303.451 134.719 304.753 140.955 305.567 146.702C312.238 193.009 307.302 240.076 310.177 286.708C311.045 301.132 312.727 315.501 315.059 329.762C315.764 334.153 316.632 338.599 318.856 342.505C320.158 344.727 321.839 346.735 322.761 349.121C325.472 356.115 320.157 364.086 313.052 367.394C305.946 370.702 297.702 370.537 289.837 370.32C265.157 369.615 240.531 368.965 215.851 368.261C209.614 368.099 202.78 367.666 198.386 363.488C193.993 359.313 193.558 352.808 193.83 346.897C195.077 317.399 206.034 289.094 213.248 260.355C220.408 231.888 223.988 202.77 230.931 174.248C234.131 161.126 237.168 145.347 244.22 133.472C250.674 122.735 263.313 129.622 274.324 128.754Z" fill="#C188DB"/>
<path d="M190.785 163.721C186.228 167.354 180.316 171.15 174.946 168.872C171.204 167.3 169.251 163.287 167.515 159.6C159.705 142.574 151.46 125.764 143.215 108.955C139.798 110.853 135.947 113.293 135.513 117.197C135.296 119.258 136.164 121.318 137.032 123.216C146.849 145.285 157.535 166.974 169.088 188.23C170.173 190.236 171.42 192.406 173.428 193.49C175.868 194.791 178.852 194.303 181.564 193.652C197.565 189.803 212.481 182.482 226.746 174.349C230.543 172.18 234.557 169.74 236.239 165.727C237.649 162.528 237.324 158.895 236.998 155.425C236.076 146.207 231.248 131.187 219.803 139.863C209.823 147.291 200.548 155.967 190.785 163.721Z" fill="#E2CBB7"/>
<path d="M140.833 99.0955C139.695 98.228 138.176 98.228 136.82 97.74C133.511 96.4929 131.992 92.426 128.955 90.5823C126.243 88.9015 122.392 89.4434 120.168 91.7751C117.998 94.0525 117.402 97.4687 116.967 100.614C116.805 101.753 116.642 102.891 116.913 103.976C117.239 105.223 118.107 106.199 118.92 107.066C123.043 111.404 127.87 114.983 133.186 117.64C134.27 118.182 135.355 118.67 136.549 118.724C141.159 119.05 143.871 114.441 143.871 110.754C143.925 108.476 142.732 100.505 140.833 99.0955Z" fill="#E2CBB7"/>
<path d="M296.562 72.9042C295.694 69.217 294.555 65.5841 292.982 62.2222C287.396 50.2931 270.472 34.7307 256.478 43.1353C253.223 45.0874 250.728 48.0697 248.396 51.052C246.009 54.1429 243.731 57.3422 241.941 60.8124C238.578 67.3736 236.897 75.2359 237.819 82.6103C238.687 89.4428 242.05 96.1662 245.25 102.239C249.427 110.264 254.959 118.398 263.475 121.489C274.811 125.61 287.992 118.615 293.85 108.096C299.546 97.5761 299.328 84.6167 296.562 72.9042Z" fill="#E2CBB7"/>
<path d="M260.391 55.2799C257.462 60.16 253.339 64.1728 249.054 67.914C245.745 70.8423 242.166 73.8789 240.864 78.1084C239.779 81.5786 240.43 85.3201 239.562 88.8447C237.013 89.2783 235.06 86.7299 233.704 84.5065C231.697 81.0906 229.636 77.5661 228.877 73.6619C228.334 70.788 228.551 67.8057 228.768 64.9317C229.202 59.4011 229.853 53.7618 232.348 48.8814C235.006 43.7304 239.671 39.6636 245.203 37.7658C249.759 36.193 258.329 35.4341 262.343 39.0127C266.845 43.0255 262.886 51.2675 260.391 55.2799Z" fill="#534741"/>
<path d="M346.794 127.016C344.569 123.22 341.37 120.075 338.711 116.55C331.333 106.953 328.134 94.9152 322.981 83.9619C320.811 79.4072 318.045 74.7441 313.597 72.3038C310.994 70.8939 306.112 70.406 302.966 72.0328C303.02 71.0026 303.129 69.9181 303.129 68.8879C303.346 58.1516 300.362 46.927 292.768 39.3356C285.175 31.7444 272.428 28.8706 263.316 34.5099C257.132 38.3597 254.04 48.8791 262.556 52.187C265.377 53.2712 268.957 52.7832 271.94 53.6508C276.442 54.9523 280.782 57.067 284.416 60.0493C290.382 64.875 294.45 72.5207 293.691 80.2204C294.504 79.0276 295.101 77.7264 295.481 76.3706C297.813 77.889 296.674 81.4136 295.915 84.0706C294.45 89.3843 295.589 95.0235 296.729 100.392C298.627 94.102 300.471 87.7035 301.719 81.3049C303.834 84.7212 307.414 88.0831 308.987 90.3061C318.045 102.778 320.052 119.153 319.13 134.553C318.859 139.108 318.37 143.879 320.215 148.055C322.656 153.64 329.273 156.947 335.347 156.08C341.422 155.212 346.629 150.495 348.693 144.747C350.753 138.945 349.831 132.33 346.794 127.016Z" fill="#534741"/>
<path d="M294.011 486.149C294.933 486.259 295.91 486.42 296.669 486.964C297.646 487.668 298.025 488.862 298.242 490.055C299.273 495.044 298.35 500.519 300.683 505.02C301.876 507.351 303.883 509.249 306.27 510.281C308.765 511.364 311.585 511.525 314.08 512.667C316.575 513.75 318.8 516.46 317.986 519.063C317.01 522.154 312.833 522.642 309.578 522.481C303.72 522.209 297.808 521.992 291.95 521.721C287.774 521.559 283.163 521.178 280.179 518.251C277.739 515.81 277.034 512.179 276.6 508.706C275.949 503.61 273.562 491.953 276.762 487.452C279.691 483.277 289.835 485.664 294.011 486.149Z" fill="#ACB18F"/>
<path d="M213.146 480.613C214.339 480.991 215.642 481.48 216.401 482.456C217.323 483.594 217.323 485.169 217.323 486.631C217.323 492.435 217.269 498.236 217.16 503.982C217.106 506.533 217.051 509.136 216.129 511.519C214.177 516.618 208.21 519.71 202.84 518.623C200.183 518.08 197.741 516.725 195.409 515.315C194.487 514.775 193.565 514.177 192.914 513.366C192.046 512.224 191.884 510.708 191.884 509.298C191.829 505.285 193.023 501.382 194.216 497.531C196.006 491.675 197.199 485.059 199.749 479.475C201.973 474.54 209.187 479.258 213.146 480.613Z" fill="#ACB18F"/>
<path d="M291.316 47.0489C289.363 45.3681 287.302 47.6455 286.109 49.1637C284.102 51.7667 281.932 54.5863 280.359 57.4599C279.817 58.4361 280.739 59.4663 281.661 59.412C282.041 59.7916 282.366 60.1169 282.8 60.3882C283.343 60.6592 284.048 60.7135 284.536 60.3882C285.783 59.5747 286.814 58.2192 287.79 57.189C289.092 55.8335 290.394 54.4777 291.695 53.1222C293.811 51.0617 293.757 49.1097 291.316 47.0489Z" fill="#DD7A8F"/>
<path d="M299.649 55.8693C299.107 54.5678 297.697 53.5919 296.286 54.2425C294.551 55.0557 292.977 57.1164 291.676 58.4719C290.211 60.0987 288.855 61.7795 287.662 63.6233C287.174 64.3822 287.771 65.2498 288.53 65.4667C288.584 66.0633 288.964 66.6596 289.777 67.0935C291.459 68.0694 292.978 66.4969 294.117 65.4127C295.69 64.0029 297.1 62.3761 298.402 60.695C299.487 59.3395 300.409 57.6587 299.649 55.8693Z" fill="#DD7A8F"/>
<path d="M369.585 235.621C371.539 236.814 373.764 237.953 376.041 237.519C379.24 236.869 380.922 233.398 382.116 230.362C386.456 219.192 390.739 207.967 395.08 196.797C399.039 186.603 403.053 175.975 402.565 165.022C402.348 159.925 399.582 153.635 394.536 154.069C391.554 154.286 389.384 156.889 387.702 159.329C381.084 168.872 380.65 178.741 377.94 190.074C376.853 194.683 374.414 205.636 371.81 209.54C369.151 213.444 364.487 210.245 360.095 208.51C356.459 207.045 349.951 200.213 347.402 197.231C341.813 190.67 340.458 189.477 336.282 186.061C333.571 183.838 333.135 184.109 329.609 184C311.114 183.512 334.383 206.991 338.235 210.895C347.509 220.493 358.086 228.844 369.585 235.621Z" fill="#B79A7D"/>
<path d="M451.115 255.302C429.094 256.007 406.042 250.422 384.454 256.495C384.344 339.566 388.953 431.693 396.17 514.222C403.056 514.222 409.946 514.222 416.835 514.222C422.477 469.38 420.85 426.92 422.205 381.971C424.699 402.898 429.528 414.882 434.516 440.912C436.851 452.947 439.562 464.769 441.567 476.914C442.599 483.096 443.686 489.334 444.876 495.461C445.908 500.719 447.806 506.252 447.645 511.781C454.369 512.919 461.314 510.045 467.877 508.418C467.877 497.305 467.877 486.133 467.877 475.019C467.877 460.433 467.172 446.386 465.868 431.965C464.675 418.406 462.776 404.528 462.776 390.863C462.071 381.861 461.366 372.859 460.826 363.805C459.684 343.417 465.38 315.111 464.513 294.723C464.08 284.583 457.623 282.306 456.595 272.22C456.106 267.34 455.563 262.406 454.803 257.58C454.531 255.845 454.641 253.296 453.121 253.133C452.797 252.971 452.092 255.248 451.115 255.302Z" fill="#B79A7D"/>
<path d="M419.905 131.691C423.974 128.546 427.39 123.774 429.67 117.538C433.846 105.989 436.773 93.6801 435.146 81.4796C433.196 67.4897 422.671 51.0602 407.106 49.9213C388.824 48.6201 383.455 71.0686 380.311 86.143C377.814 98.1265 378.519 111.248 384.865 121.66C394.303 137.276 409.221 139.987 419.905 131.691Z" fill="#B79A7D"/>
<path d="M396.438 64.1669C397.25 65.9563 399.421 66.9865 401.319 66.4443C403.218 65.9563 404.573 63.9499 404.357 61.9979C406.527 66.4986 413.633 67.4205 416.887 63.679C415.477 63.2993 416.017 65.902 417.321 66.5526C420.031 67.7998 423.285 67.8541 425.999 66.6069C423.99 67.7458 425.294 70.7821 426.759 72.5715C427.898 73.9273 428.981 75.3371 430.12 76.6926C428.114 79.8376 431.75 84.6636 435.328 83.6334C432.834 84.8263 432.129 88.5678 433.972 90.5739C432.29 92.526 431.097 94.912 430.663 97.4603C432.184 97.5686 432.779 100.063 431.423 100.822C432.617 101.69 434.244 101.852 435.599 101.256C434.787 101.419 435.111 102.883 435.926 102.991C436.738 103.1 437.443 102.395 437.876 101.635C439.125 99.5751 439.507 97.0267 438.801 94.695C441.35 93.5022 442 90.2486 442.324 87.4289C442.489 86.0191 442.651 84.6093 442.812 83.1995C442.977 81.844 443.139 80.4342 442.596 79.187C442.055 77.9398 440.645 76.9096 439.342 77.3975C442.434 76.9096 444.116 72.5715 442.162 70.1315C446.503 68.559 446.881 61.2389 442.706 59.2325C444.006 56.4672 443.411 52.9427 441.185 50.8279C439.018 48.7132 435.438 48.1166 432.724 49.4721C433.157 50.0687 434.244 49.6348 434.461 48.9299C434.677 48.2249 434.299 47.466 433.862 46.8694C430.99 42.857 425.077 41.3388 420.575 43.4535C418.026 39.8203 412.546 38.5732 408.697 40.7965C409.509 41.2302 410.596 40.7965 410.919 39.929C408.697 37.8683 405.984 35.9705 402.891 36.0248C399.854 36.0788 396.817 39.1154 397.849 41.9894C393.129 39.5494 386.566 44.3751 387.488 49.5808C384.396 49.3638 381.032 50.0144 378.917 52.2918C376.801 54.5151 376.478 58.6359 378.862 60.588C375.336 60.4797 371.92 63.245 371.27 66.7156C370.62 70.1858 372.787 73.9813 376.151 75.1745C373.221 77.2349 371.108 80.4342 370.293 83.9044C371.27 85.2599 372.519 86.3444 373.981 87.1036C373.114 87.5373 372.68 88.6218 373.004 89.5437C374.903 90.9535 377.073 92.4716 379.46 92.1463C381.847 91.8754 383.691 88.6761 381.954 87.0493C385.535 85.3685 387.433 80.7595 386.078 77.0723C386.945 76.8553 387.812 76.6383 388.734 76.4213C389.875 74.5779 390.581 71.5413 388.572 70.8907C390.471 72.4089 393.453 72.3005 395.3 70.7281C397.195 69.2096 397.632 66.2273 396.438 64.1669Z" fill="#333333"/>
<path d="M448.952 32.3406C451.284 33.2624 450.85 37.1123 448.68 38.3595C446.509 39.6066 443.744 38.8477 441.467 37.7632C442.66 38.0342 443.31 39.7153 442.55 40.6912C439.135 41.613 435.282 40.8538 432.407 38.7391C433.222 38.4138 434.037 39.6066 433.71 40.4202C433.384 41.2334 432.407 41.613 431.485 41.7757C428.613 42.2093 425.575 40.9625 423.893 38.5764C426.009 37.9258 427.471 41.3961 426.009 43.0772C424.543 44.758 421.885 44.6496 419.769 43.8904C419.174 43.6734 418.524 43.3482 418.304 42.7516C419.608 42.6976 420.313 44.487 419.608 45.5712C418.902 46.6557 417.33 46.8727 416.189 46.3848C414.998 45.8968 414.128 44.8663 413.478 43.7821C413.805 44.4327 413.856 45.2459 413.588 45.8968C411.201 45.7882 409.085 43.8904 408.704 41.5587C408.325 41.2334 408.975 40.4742 409.357 40.7995C406.805 39.4983 404.638 37.3293 403.334 34.7809C401.329 35.9738 398.343 35.2145 397.205 33.1541C395.578 33.4251 393.844 32.9371 392.651 31.7985C392.052 32.8828 390.587 33.2624 389.448 32.8828C388.31 32.5035 387.388 31.4731 386.845 30.3886C386.576 29.8464 386.411 29.25 386.683 28.7077C387.01 28.2197 387.983 28.2739 387.983 28.8704C385.111 28.7619 382.614 26.2134 382.452 23.3938C383.319 23.3938 384.189 23.7733 384.729 24.4783C382.724 24.3156 381.203 21.9839 381.909 20.0861C382.562 18.1883 385.218 17.3207 386.845 18.4594C385.651 17.2123 385.111 15.3144 385.544 13.6335C386.249 13.4708 387.01 13.2539 387.715 13.0912C385.599 12.2779 385.544 8.75333 387.55 7.72309C389.503 6.6386 392.324 8.26533 392.541 10.5427C390.642 9.62092 390.642 6.42169 392.486 5.44568C394.329 4.46964 396.988 6.25905 396.716 8.31955C396.826 6.85551 398.182 5.60836 399.647 5.71682C401.112 5.77104 402.358 7.18083 402.306 8.64488C402.629 6.96393 403.606 5.17455 405.343 4.84923C407.022 4.52387 408.814 6.80128 407.565 8.04842C406.86 5.77104 409.626 3.65628 411.961 4.03586C414.293 4.36119 416.137 6.20482 417.764 7.93997C417.981 6.53015 419.336 5.44568 420.746 5.49991C422.156 5.60836 423.405 6.8555 423.405 8.26533C422.373 7.23506 422.806 5.22878 424.165 4.68655C425.52 4.14428 427.202 5.39146 427.147 6.80128C428.124 5.12033 430.185 4.25274 432.028 4.68655C433.872 5.12033 435.337 6.85551 435.499 8.75333C435.609 7.50619 436.802 6.6386 438.051 6.42169C439.241 6.25902 440.49 6.58437 441.683 6.90973C443.094 7.34351 444.614 7.83151 445.371 9.07869C446.131 10.3258 445.426 12.4406 443.961 12.3321C445.914 12.2779 448.14 12.3863 449.385 13.8504C450.634 15.3687 449.168 18.4052 447.434 17.5918C449.767 17.3749 452.37 18.4052 453.182 20.5741C453.997 22.7431 452.099 25.6712 449.818 25.1289C451.717 25.4 453.237 27.3521 453.021 29.25C452.804 30.9851 450.905 32.5035 448.952 32.3406Z" fill="#333333"/>
<path d="M450.239 150.865L450.782 152.112C450.621 151.732 450.404 151.298 450.239 150.865Z" fill="#B79A7D"/>
<path d="M416.079 521.605C416.134 518.623 416.189 515.587 416.189 512.606C410.981 510.763 405.016 511.141 400.132 513.689C399.592 513.961 398.56 513.799 398.887 513.311C394.329 517.43 389.067 520.738 383.426 523.069C382.125 523.613 380.77 524.101 379.793 525.077C377.733 527.082 378.056 531.04 380.443 532.667C382.669 534.241 385.706 533.698 388.362 533.1C395.901 531.422 403.441 529.795 410.981 528.114C412.336 527.787 413.856 527.461 414.778 526.432C415.972 525.184 416.027 523.341 416.079 521.605Z" fill="#4D4D4D"/>
<path d="M468.424 512.104C467.337 509.285 466.253 506.517 465.17 503.697C459.635 503.917 454.266 506.517 450.685 510.746C450.307 511.183 449.275 511.4 449.385 510.856C446.671 516.334 443.039 521.375 438.698 525.659C437.721 526.636 436.637 527.612 436.094 528.857C434.956 531.515 436.693 535.04 439.513 535.69C442.169 536.288 444.772 534.662 446.998 533.142C453.344 528.806 459.745 524.411 466.143 520.075C467.337 519.26 468.53 518.394 469.019 517.091C469.617 515.464 469.019 513.731 468.424 512.104Z" fill="#4D4D4D"/>
<path d="M370.84 314.418C369.21 316.695 367.043 318.539 365.361 320.816C360.641 327.214 360.748 336.433 364.655 343.372C368.615 350.259 375.938 354.867 383.694 356.604C391.612 358.34 399.857 357.364 407.885 358.34C416.02 359.368 423.887 362.46 432.077 363.165C444.171 364.196 456.051 359.967 467.495 355.844C475.74 352.862 485.179 348.523 486.967 339.902C487.838 335.618 486.534 331.227 485.124 327.107C481.546 316.641 477.367 306.447 472.486 296.578C471.781 295.114 471.021 293.65 469.776 292.565C467.007 290.234 462.886 290.776 459.305 291.427C441.515 294.68 423.398 296.524 405.337 296.958C400.996 297.066 396.658 297.121 392.372 297.066C388.52 297.012 381.74 295.385 378.16 296.578C374.362 297.879 375.556 300.103 374.744 304.386C374.039 307.965 372.955 311.435 370.84 314.418Z" fill="#662E2A"/>
<path d="M432.685 145.021C434.095 144.859 435.612 144.75 436.967 145.13C439.953 145.998 441.092 148.926 441.797 151.474C444.456 160.746 447.056 170.019 449.715 179.291C451.83 186.665 453.891 193.986 456.006 201.36C462.407 223.809 468.809 246.366 472.661 269.194C473.906 276.677 474.938 284.214 475.643 291.751C475.698 292.565 475.805 293.486 475.317 294.191C474.721 295.059 473.528 295.493 472.389 295.872C440.658 305.958 404.37 310.404 372.965 299.722C373.615 283.509 374.265 267.35 374.971 251.138C375.569 237.039 376.109 222.995 377.684 208.951C379.635 191.22 383.215 173.652 388.313 156.408C389.073 153.914 389.778 145.889 392.382 144.371C395.096 142.798 400.3 145.564 403.609 146.052C413.21 147.461 423.136 145.997 432.685 145.021Z" fill="#AA4A4D"/>
<path d="M445.364 152.402C456.808 177.562 468.307 202.667 479.754 227.827C480.893 230.321 482.086 232.978 481.76 235.69C481.436 238.835 479.211 241.437 477.096 243.823C464.73 257.867 451.766 272.345 434.626 279.882C431.86 281.129 428.82 282.159 425.782 281.78C422.745 281.4 419.763 279.232 419.384 276.195C418.896 272.02 423.072 269.037 426.597 266.76C436.414 260.524 445.203 252.553 452.416 243.389C455.181 239.865 457.785 235.961 458.274 231.46C458.817 226.526 456.647 221.7 454.476 217.199C447.263 201.962 438.856 187.702 430.883 172.953C427.898 167.476 426.488 162.921 430.068 157.336C433.05 152.836 441.839 144.648 445.364 152.402Z" fill="#B79A7D"/>
<path d="M420.675 72.9429C419.915 74.3528 419.1 75.8709 419.155 77.4977C419.21 79.1245 420.403 80.8596 422.03 80.8053C419.155 82.2694 418.883 87.0411 421.597 88.8846C419.643 90.62 420.077 94.3072 422.354 95.6084C420.727 97.2352 421.432 100.543 423.657 101.356C422.085 102.332 421.487 104.61 422.354 106.236C423.224 107.863 425.394 108.676 427.128 107.971C426.151 109.002 425.174 110.141 425.122 111.55C425.068 112.96 426.533 114.424 427.778 113.828C425.773 115.4 425.934 118.979 428.105 120.389C430.22 121.799 433.584 120.497 434.234 118.003C435.211 119.359 437.327 119.467 438.737 118.545C440.147 117.623 440.907 115.997 441.231 114.37C443.074 114.424 445.028 114.261 446.493 113.177C447.959 112.093 448.664 109.761 447.415 108.351C449.042 108.514 450.724 107.592 451.484 106.128C452.241 104.664 452.024 102.766 450.941 101.519C453.001 100.705 454.9 99.1329 455.227 96.9642C455.55 94.7952 453.706 92.3551 451.536 92.7347C454.628 91.3789 456.42 87.5834 455.443 84.3298C455.172 83.4623 454.14 82.5404 453.545 83.2453C455.333 81.8898 456.582 79.7751 456.472 77.552C456.365 75.3286 454.521 73.2139 452.296 73.1056C454.033 72.1297 454.79 69.6894 453.923 67.8459C453.056 66.0565 450.614 65.1346 448.77 65.9482C448.987 64.5383 449.204 63.1285 449.369 61.7727C449.421 61.2848 449.476 60.6882 449.149 60.3089C448.88 59.9833 448.392 59.9293 447.904 59.9293C446.438 59.8749 444.921 60.0919 443.511 60.5798C443.944 59.1157 443.184 57.4349 441.829 56.7843C440.47 56.1334 438.682 56.513 437.76 57.7059C433.367 54.073 425.718 55.8081 423.279 60.9595C420.077 58.5734 417.799 63.0742 417.201 65.6225C416.878 67.141 416.823 68.9844 417.473 70.3943C417.638 70.6656 420.238 73.7562 420.675 72.9429Z" fill="#333333"/>
<path d="M260.5 264.639C260.663 265.506 260.826 266.374 261.26 267.133C261.694 267.892 262.453 268.543 263.321 268.543C263.701 268.543 264.135 268.434 264.515 268.543C265.111 268.651 265.545 269.193 265.816 269.79C266.793 271.904 266.25 274.616 267.823 276.297C269.071 277.652 271.241 277.761 272.976 277.164C274.441 276.622 275.797 275.483 276.339 274.019C276.827 272.501 276.448 270.82 275.905 269.356C274.007 264.313 270.264 259.921 269.505 254.553C269.396 253.794 269.342 252.926 268.854 252.33C268.04 251.354 266.576 251.408 265.328 251.679C263.538 252.058 259.579 252.818 258.982 254.932C258.602 256.18 259.362 258.132 259.633 259.379C259.904 261.114 260.175 262.903 260.5 264.639Z" fill="#F9E9DE"/>
<path d="M38.8058 122.245C37.9923 118.992 37.6669 115.684 36.582 112.485C36.3106 111.617 35.9312 110.75 35.2261 110.153C34.7377 109.72 34.0869 109.503 33.5444 109.177C30.6697 107.388 30.3985 102.725 27.3068 101.477C25.5168 100.719 23.3471 101.478 21.8284 102.725C19.4418 104.623 17.9229 107.605 17.8687 110.642C17.7602 114.383 19.7129 117.907 21.9368 120.89C24.1607 123.872 26.8186 126.638 28.5001 129.945C29.2052 131.301 29.7476 132.765 30.6154 134.012C31.4833 135.259 32.785 136.344 34.3039 136.452C36.1479 136.615 37.7212 135.367 39.1855 134.229C41.0842 132.71 43.6874 131.572 41.9517 129.078C40.4331 126.963 39.4569 124.794 38.8058 122.245Z" fill="#F9E9DE"/>
<path d="M184.115 368.762C184.494 375.323 184.928 381.884 186.176 388.335C187.152 393.379 188.617 398.313 190.135 403.193C198.814 431.062 209.662 458.286 222.626 484.474C223.711 486.699 225.012 489.082 227.291 490.058C230.871 491.578 235.101 488.542 236.295 484.801C237.488 481.059 236.512 477.046 235.589 473.25C230.708 453.891 225.826 434.587 220.944 415.231C219.751 410.568 218.612 405.902 217.907 401.133C217.093 395.549 216.931 389.909 216.822 384.27C216.551 373.858 216.28 363.391 217.419 353.034C218.232 345.768 219.697 338.558 221.053 331.347C223.494 318.387 225.501 305.319 227.019 292.196C227.453 288.455 227.887 284.605 227.019 280.918C224.904 271.483 214.869 265.302 205.215 265.302C198.055 265.302 190.298 268.067 184.603 272.351C179.829 275.983 180.372 279.454 180.643 284.985C181.511 302.77 181.782 320.61 182.542 338.396C183.03 348.536 183.518 358.673 184.115 368.762Z" fill="#ADADAD"/>
<path d="M130.856 297.133C130.965 289.27 131.128 281.299 133.134 273.925C135.142 266.55 139.155 259.718 144.959 256.844C151.956 253.374 160.635 256.41 166.167 263.188C171.7 269.966 174.25 279.835 173.978 289.216C173.816 294.15 172.947 298.976 172.405 303.856C171.32 312.966 171.375 322.292 171.158 331.511C170.507 360.413 167.795 389.042 165.083 417.672C163.13 438.115 161.232 458.557 159.279 478.999C158.791 484.044 158.357 489.14 157.869 494.181C157.272 500.037 156.675 502.1 151.306 501.556C144.58 500.907 144.254 495.374 143.44 488.108C138.776 447.278 134.707 406.339 132.484 365.292C131.236 342.625 130.477 319.798 130.856 297.133Z" fill="#ADADAD"/>
<path d="M111.66 289.274C108.514 296.269 103.578 302.45 101.192 309.716C98.8594 317.037 100.107 326.47 106.833 330.16C114.21 334.224 124.082 329.4 131.621 333.141C137.262 335.906 140.028 342.738 145.615 345.668C150.497 348.216 156.409 347.239 161.562 345.341C166.715 343.443 171.543 340.624 176.912 339.54C182.662 338.347 188.791 339.269 193.999 342.033C198.392 344.42 202.46 348.161 207.45 348.271C216.509 348.433 222.15 336.721 231.154 336.122C234.951 335.906 238.585 337.697 242.382 337.426C249.704 336.882 254.315 328.64 253.935 321.32C253.556 314 249.813 307.385 246.884 300.661C243.521 292.907 241.188 284.719 239.995 276.369C239.019 269.32 238.151 261.078 232.076 257.445C229.038 255.601 225.296 255.384 221.77 255.384C197.47 255.113 173.387 260.047 149.087 259.126C140.733 258.8 128.692 253.432 122.834 260.535C116.379 268.506 115.728 280.164 111.66 289.274Z" fill="#F2F2F2"/>
<path d="M140.246 482.353C139.215 485.011 140.029 487.937 140.68 490.702C141.928 496.018 142.47 501.547 142.253 507.025C142.253 507.458 142.199 507.891 142.036 508.324C141.602 509.301 140.409 509.683 139.378 509.899C135.256 510.821 130.971 510.982 126.849 510.387C124.137 510.006 121.099 509.411 118.984 511.144C117.736 512.121 117.139 513.695 116.706 515.212C116.055 517.327 115.621 519.441 115.295 521.611C114.916 524.431 114.97 527.794 117.248 529.527C118.712 530.613 120.611 530.775 122.455 530.83C133.683 531.208 144.965 530.882 156.193 529.743C158.308 529.527 160.695 529.093 161.78 527.25C162.377 526.219 162.377 524.974 162.377 523.781C162.323 515.212 162.105 506.646 161.726 498.077C161.509 493.793 161.238 489.509 160.966 485.227C160.858 483.924 161.183 481.809 159.773 481.16C158.58 480.565 155.326 481.703 154.024 481.864C152.668 482.081 140.355 482.081 140.246 482.353Z" fill="#736357"/>
<path d="M235.1 467.068C237.432 475.039 239.819 483.009 242.151 490.983C243.019 493.854 243.887 496.784 245.297 499.442C246.111 500.959 247.087 502.368 248.009 503.778C250.613 507.846 252.62 512.292 253.976 516.955C254.247 517.986 254.518 519.015 254.409 520.101C254.247 521.346 253.596 522.484 252.837 523.461C249.311 527.962 243.182 530.238 237.595 529.1C236.456 528.883 235.317 528.505 234.449 527.8C233.31 526.933 232.659 525.575 232.171 524.275C228.32 514.73 228.591 503.888 224.306 494.508C223.275 492.228 221.973 490.058 220.943 487.727C220.184 485.994 219.587 484.202 218.99 482.414C218.285 480.299 216.495 476.992 216.495 474.77C216.495 472.655 218.99 472.167 220.888 471.352C225.553 469.399 230.272 467.989 235.1 467.068Z" fill="#736357"/>
<path d="M114.805 264.165C115.619 264.978 116.921 265.195 117.843 265.9C118.982 266.768 119.47 268.394 118.928 269.75C118.44 271.051 117.084 272.136 117.355 273.491C117.68 275.335 120.338 275.498 121.965 274.63C123.593 273.763 125.22 272.353 127.064 272.624C129.125 272.895 130.264 275.118 131.241 277.016C132.217 278.86 133.953 280.92 135.96 280.378C137.424 279.998 138.401 278.317 139.919 278.155C142.197 277.883 143.282 280.703 144.475 282.601C145.94 284.933 148.869 286.559 151.473 285.637C153.697 284.824 155.161 282.439 157.493 282.167C159.88 281.896 161.778 283.957 163.46 285.637C165.141 287.319 167.745 288.945 169.752 287.698C170.403 287.319 170.837 286.722 171.325 286.18C173.766 283.523 177.78 282.439 181.251 283.469C183.475 284.119 185.373 285.529 187.489 286.288C189.659 287.102 192.371 287.102 193.889 285.421C194.594 284.607 194.974 283.577 195.679 282.764C197.469 280.812 200.615 281.3 203.11 282.222C205.606 283.089 208.372 284.228 210.758 283.089C213.145 281.896 214.338 278.697 216.996 278.209C218.569 277.938 220.088 278.697 221.661 278.805C224.373 278.968 226.976 276.853 227.356 274.196C229.254 274.359 231.261 274.468 233.051 273.654C234.787 272.841 236.143 270.78 235.384 268.991C237.933 269.099 239.669 265.358 237.879 263.514C236.957 262.592 235.384 262.104 235.059 260.803C234.787 259.664 235.547 258.2 234.625 257.495C232.075 258.58 230.556 261.128 228.604 263.08C225.566 266.117 221.39 267.635 217.213 268.72C201.646 272.841 185.211 271.539 169.155 270.129C157.765 269.154 146.157 268.069 135.471 264.002C133.627 263.297 131.783 262.538 129.885 262.05C126.196 261.128 122.345 260.315 118.711 259.502C116.162 258.905 112.256 261.562 114.805 264.165Z" fill="white"/>
<path d="M175.928 68.8995C173.053 71.4479 169.148 72.4241 165.459 73.5626C161.771 74.7015 157.974 76.1113 155.587 79.1476C153.906 81.2623 153.201 83.9736 152.496 86.5763C151.194 91.348 149.946 96.662 152.224 101.108C153.363 103.386 155.37 105.175 156.184 107.615C157.215 110.652 156.13 113.959 154.719 116.833C153.309 119.707 151.573 122.527 151.139 125.672C150.814 127.949 151.194 130.389 150.543 132.558C149.35 136.462 145.01 138.74 140.942 138.902C136.874 139.065 132.915 137.492 129.117 135.974C126.514 134.944 123.639 133.534 122.988 130.823C122.554 128.817 123.531 126.811 124.778 125.184C126.026 123.557 127.599 122.201 128.575 120.412C129.063 119.49 129.443 118.406 129.009 117.43C128.467 116.237 126.839 115.803 126.297 114.61C125.646 113.146 126.894 111.519 128.25 110.598C129.552 109.676 131.179 108.808 131.559 107.236C132.209 104.579 128.846 102.627 128.033 100.024C127.11 97.2043 129.281 94.3846 131.287 92.2156C133.294 90.0468 135.409 87.2272 134.488 84.4076C133.945 82.7808 132.426 81.3166 132.806 79.6898C133.348 77.5211 136.494 77.4125 138.122 75.8943C140.888 73.3457 138.339 68.7369 139.152 65.1037C140.02 61.2539 144.576 59.1934 145.553 55.3976C145.824 54.3674 145.824 53.2289 146.204 52.2527C146.692 51.0055 147.777 50.0836 148.807 49.2161C152.55 46.0168 156.509 42.7092 161.337 41.7877C164.537 41.1368 167.846 41.6247 170.992 42.2756C173.812 42.8719 176.741 43.6854 178.64 45.8542C182.925 50.7885 180.647 64.7784 175.928 68.8995Z" fill="#C6B697"/>
<path d="M57.5789 135.654C72.3868 140.046 87.8454 144.276 103.142 142.053C120.499 139.504 136.283 128.822 153.803 128.659C154.833 128.659 155.973 128.713 156.84 129.256C157.546 129.744 158.034 130.503 158.468 131.262C162.481 138.582 163.404 147.529 161.071 155.554C159.77 160.001 157.437 164.176 154.128 167.429C151.687 169.815 148.758 171.605 145.721 173.069C135.361 178.111 123.428 179.576 111.929 178.437C100.43 177.352 89.256 173.828 78.5703 169.436C70.4341 166.074 62.5149 162.169 55.3551 157.127C47.436 151.488 40.5473 144.493 33.7673 137.498C33.3876 137.118 33.0078 136.684 32.9535 136.142C32.7365 132.292 40.6013 129.093 43.6389 129.798C48.2494 130.937 52.8057 134.299 57.5789 135.654Z" fill="#DD6C70"/>
<path d="M191.553 124.529C194.048 123.879 196.706 123.011 199.255 123.499C202.618 124.096 204.625 126.59 206.144 128.922C216.612 144.918 220.68 162.757 224.314 180.38C229.521 205.431 236.41 228.585 236.247 253.962C236.193 260.035 235.434 266.867 229.251 270.717C226.104 272.669 222.09 273.536 218.131 274.133C201.099 276.736 181.301 277.603 163.998 276.41C156.404 275.868 148.756 275.326 141.434 273.807C132.972 272.072 124.456 268.656 120.497 262.746C116.971 257.541 117.622 251.305 118.49 245.503C121.636 223.271 126.083 201.093 131.833 179.133C135.684 164.384 140.132 149.689 144.526 135.049C146.478 128.488 149.462 121.168 159.984 123.12C171.104 125.126 179.891 127.566 191.553 124.529Z" fill="#DD6C70"/>
<path d="M180.148 121.662C176.677 121.987 172.5 122.638 169.083 122.042C159.591 120.361 153.896 110.6 149.014 102.033C144.566 94.2249 145.922 79.8557 147.387 70.8545C147.875 67.8179 148.471 64.673 150.153 62.1243C153.516 57.1899 159.971 56.1054 165.72 55.8344C175.809 55.2922 186.332 55.9428 195.01 61.2024C215.622 73.5655 204.611 119.276 180.148 121.662Z" fill="#F9E9DE"/>
<path d="M222.839 141.656C248.658 172.022 259.126 211.388 268.89 249.399C269.107 250.212 269.324 251.134 268.998 251.893C268.347 253.682 262.381 254.55 259.669 255.418C258.421 255.797 257.119 255.309 256.631 254.116C249.526 237.036 240.684 217.949 228.317 200.869C218.391 187.15 211.557 174.407 195.664 166.274C189.047 162.858 187.528 159.658 188.016 152.175C188.504 144.855 193.44 137.264 199.461 133.739C208.519 128.317 217.144 134.932 222.839 141.656Z" fill="#DD6C70"/>
<path d="M161.721 143.95C163.619 152.951 164.921 162.006 166.277 171.116C166.494 172.471 166.819 173.989 168.012 174.586C169.748 175.508 171.701 173.773 172.786 172.146C178.807 163.145 179.729 151.704 183.96 141.727C185.695 137.551 188.082 133.593 189.221 129.201C189.438 128.387 189.601 127.52 189.275 126.706C188.624 125.025 186.346 124.863 184.556 124.917C181.735 125.025 178.915 124.971 176.04 124.863C173.817 124.754 171.593 124.646 169.477 123.995C166.874 123.236 163.89 121.23 161.124 121.284C158.575 121.392 158.738 123.236 158.738 125.405C158.792 131.749 160.419 137.876 161.721 143.95Z" fill="#F7F7F7"/>
<path d="M154.346 127.841C154.563 128.818 155.648 129.468 155.81 130.498C155.973 131.637 154.834 132.559 153.749 132.938C152.665 133.264 151.417 133.318 150.441 133.915C149.464 134.511 148.976 136.083 149.844 136.788C150.224 137.06 150.712 137.114 151.2 137.222C152.99 137.656 154.617 139.5 153.966 141.235C153.533 142.319 152.393 142.97 151.634 143.892C150.875 144.814 150.657 146.494 151.742 146.928C152.122 147.091 152.556 147.037 152.936 147.037C154.346 147.091 155.702 148.392 155.594 149.802C155.485 150.995 154.509 151.863 153.749 152.73C152.99 153.598 152.339 154.899 152.936 155.93C153.532 156.96 155.051 157.068 155.648 158.098C157.004 160.322 152.556 163.141 154.129 165.202C154.888 166.178 156.57 166.015 157.329 167.045C158.252 168.293 156.949 169.973 155.756 170.95C154.563 171.925 153.261 173.606 154.183 174.853C154.888 175.775 156.299 175.613 157.438 175.558C158.577 175.45 160.096 175.83 160.258 176.968C160.367 177.999 159.228 178.758 159.119 179.842C158.848 181.903 162.265 182.391 163.188 184.234C164.326 186.62 160.909 188.898 161.018 191.555C161.072 193.723 163.513 195.242 163.621 197.357C163.73 199.037 162.374 200.61 162.753 202.291C162.862 202.725 163.079 203.158 163.188 203.592C163.35 204.622 162.808 205.599 162.319 206.52C161.669 207.93 161.289 209.557 161.885 210.967C162.482 212.376 164.435 213.244 165.682 212.376C166.605 211.726 166.876 210.37 166.713 209.231C166.605 208.093 166.225 206.954 166.333 205.761C166.55 202.996 169.371 200.881 169.316 198.17C169.262 196.652 168.395 195.296 168.34 193.778C168.232 191.338 170.402 189.06 169.914 186.674C169.642 185.264 168.503 184.18 168.069 182.824C167.31 180.493 168.774 178.053 168.883 175.558C168.937 174.365 168.611 173.173 168.34 171.98C167.364 167.913 166.333 163.846 165.357 159.779C165.14 158.803 164.869 157.827 164.923 156.797C164.923 155.875 165.194 154.953 165.303 154.086C165.791 150.67 164.543 147.308 163.73 144C162.591 139.662 162.103 135.162 162.157 130.661C162.211 128.438 162.536 124.48 159.824 123.775C157.926 123.287 153.804 125.564 154.346 127.841Z" fill="white"/>
<path d="M195.235 128.609C196.428 130.941 195.506 133.923 193.716 135.875C193.336 136.309 192.848 136.743 192.685 137.285C191.871 139.454 195.397 141.298 194.963 143.575C194.475 146.178 189.919 145.744 188.943 148.184C188.4 149.594 189.322 151.058 190.136 152.305C190.949 153.552 191.655 155.287 190.678 156.48C189.105 158.432 184.983 156.317 183.735 158.486C183.03 159.679 183.898 161.143 184.386 162.445C184.983 163.963 184.875 165.969 183.519 166.837C182.054 167.759 179.83 166.945 178.528 168.084C177.606 168.897 177.606 170.362 177.552 171.609C177.498 172.856 177.118 174.374 175.925 174.754C175.599 174.862 175.219 174.862 174.948 175.079C174.623 175.35 174.569 175.838 174.569 176.272C174.514 177.899 174.514 179.525 174.46 181.098C173.158 180.718 171.585 181.803 171.531 183.213C171.531 183.918 171.802 184.677 171.477 185.273C171.097 185.978 170.066 186.141 169.361 185.761C168.656 185.382 168.168 184.677 167.788 183.972C166.649 181.857 165.782 179.363 166.541 177.085C167.138 175.296 168.657 173.994 169.85 172.476C171.965 169.819 173.104 166.566 174.243 163.421C177.226 155.287 180.481 147.208 183.952 139.237C185.579 135.55 187.098 131.646 188.834 128.067C190.244 125.573 193.824 125.79 195.235 128.609Z" fill="white"/>
<path d="M193.604 75.7343C197.075 77.9574 199.95 81.3736 200.927 85.3861C202.228 90.7544 200.004 96.3937 197.021 101.057C194.092 105.72 190.403 110.004 188.288 115.101C187.366 117.324 186.769 119.71 186.335 122.096C185.576 126.217 185.305 130.555 186.607 134.513C187.908 138.471 191.163 141.996 195.285 142.755C199.408 143.514 204.126 140.694 204.615 136.574C204.886 134.35 204.072 131.748 205.537 130.012C207.49 127.735 212.154 128.765 213.185 125.946C214.215 123.18 210.093 121.066 209.714 118.083C209.225 114.071 215.626 112.444 216.548 108.485C217.361 105.015 213.51 101.491 214.758 98.1831C215.355 96.6107 216.928 95.6888 218.175 94.5499C219.423 93.4114 220.453 91.622 219.64 90.1578C219.314 89.6156 218.826 89.1819 218.446 88.694C217.524 87.3382 217.741 85.5488 217.904 83.9223C218.663 76.1139 216.765 68.0346 212.588 61.3652C210.961 58.7622 209.008 56.4308 206.947 54.1534C204.615 51.6591 202.174 49.273 199.299 47.4296C194.201 44.0677 188.017 42.4952 181.996 42.8749C179.61 43.0375 177.223 43.5254 175.108 44.664C169.249 47.8632 166.754 57.6236 170.063 63.3713C175.325 72.3724 185.685 70.583 193.604 75.7343Z" fill="#C6B697"/>
<path d="M48.2446 102.58C48.6243 103.448 49.0584 104.478 48.6786 105.4C48.4076 105.942 47.9192 106.321 47.4311 106.701C37.1251 113.967 26.6567 121.559 15.9169 128.174C15.2118 128.608 14.4525 129.096 13.5846 129.313C11.9031 129.746 10.7641 131.102 9.35379 130.017C7.94352 128.987 5.61107 124.92 4.68896 123.456C3.33293 121.287 1.48879 118.359 0.512446 116.082C0.187 115.377 -0.0841864 114.564 0.0242959 113.804C0.132778 112.774 0.946383 111.961 1.70576 111.202C4.20086 108.816 7.5095 107.243 10.1131 105.02C13.8557 101.821 17.8154 99.4893 21.9919 96.8323C24.8667 94.9889 27.6872 92.5489 30.7247 90.9761C32.7859 89.9459 35.2267 88.1024 37.4508 87.6142C39.0778 87.2889 39.8373 88.4277 40.6508 89.6206C43.4713 93.7417 46.1835 98.0252 48.2446 102.58Z" fill="#FF8FA0"/>
<path d="M45.9218 102.741C46.2472 103.501 46.6269 104.422 46.3016 105.181C46.0845 105.67 45.6508 105.995 45.271 106.266C36.6467 112.447 28.6732 118.249 19.6691 123.835C19.0725 124.214 17.1197 125.732 16.4146 125.895C15.0043 126.275 15.384 126.275 14.1907 125.353C12.9974 124.431 10.9904 120.961 10.231 119.659C9.09196 117.816 7.51912 115.267 6.65125 113.207C6.38006 112.556 6.10875 111.905 6.21724 111.255C6.32572 110.333 6.97662 109.628 7.57326 109.032C9.63443 106.971 11.6414 106.375 13.8653 104.476C17.0112 101.711 20.3199 99.759 23.7914 97.4817C26.1779 95.9092 28.5647 93.7945 31.0598 92.493C32.7413 91.6254 34.8023 89.9989 36.7007 89.6733C38.057 89.4023 38.7078 90.4325 39.4129 91.4628C41.7994 95.0416 44.1318 98.7831 45.9218 102.741Z" fill="white"/>
<path d="M45.9218 102.741C46.2472 103.501 46.6269 104.422 46.3016 105.181C46.0845 105.67 45.6508 105.995 45.271 106.266C36.6467 112.447 28.6732 118.249 19.6691 123.835C19.0725 124.214 17.1197 125.732 16.4146 125.895C15.0043 126.275 15.384 126.275 14.1907 125.353C12.9974 124.431 10.9904 120.961 10.231 119.659C9.09196 117.816 7.51912 115.267 6.65125 113.207C6.38006 112.556 6.10875 111.905 6.21724 111.255C6.32572 110.333 6.97662 109.628 7.57326 109.032C9.63443 106.971 11.6414 106.375 13.8653 104.476C17.0112 101.711 20.3199 99.759 23.7914 97.4817C26.1779 95.9092 28.5647 93.7945 31.0598 92.493C32.7413 91.6254 34.8023 89.9989 36.7007 89.6733C38.057 89.4023 38.7078 90.4325 39.4129 91.4628C41.7994 95.0416 44.1318 98.7831 45.9218 102.741Z" fill="white"/>
<path d="M45.9218 102.741C46.2472 103.501 46.6269 104.422 46.3016 105.181C46.0845 105.67 45.6508 105.995 45.271 106.266C36.6467 112.447 28.6732 118.249 19.6691 123.835C19.0725 124.214 17.1197 125.732 16.4146 125.895C15.0043 126.275 15.384 126.275 14.1907 125.353C12.9974 124.431 10.9904 120.961 10.231 119.659C9.09196 117.816 7.51912 115.267 6.65125 113.207C6.38006 112.556 6.10875 111.905 6.21724 111.255C6.32572 110.333 6.97662 109.628 7.57326 109.032C9.63443 106.971 11.6414 106.375 13.8653 104.476C17.0112 101.711 20.3199 99.759 23.7914 97.4817C26.1779 95.9092 28.5647 93.7945 31.0598 92.493C32.7413 91.6254 34.8023 89.9989 36.7007 89.6733C38.057 89.4023 38.7078 90.4325 39.4129 91.4628C41.7994 95.0416 44.1318 98.7831 45.9218 102.741Z" fill="white"/>
<path d="M8.6055 118.9C8.0631 118.575 7.41227 118.467 6.81562 118.629C6.11049 118.846 5.62226 119.442 5.40529 120.147C5.24259 120.852 5.35111 121.611 5.62233 122.262C5.73078 122.533 5.89351 122.804 6.11045 123.021C6.49016 123.347 6.97826 123.401 7.41221 123.347C7.84612 123.292 8.28011 123.075 8.65981 122.804C9.03948 122.533 9.41916 122.208 9.6361 121.774C10.287 120.635 9.58186 119.497 8.6055 118.9Z" fill="#E5E5E5"/>
<path d="M45.1491 97.8666C45.2575 98.0293 45.3661 98.1922 45.3661 98.4089C45.3661 98.6259 45.2031 98.7885 44.9864 98.7885C44.8234 98.7885 44.715 98.6259 44.6607 98.4632C44.1726 97.65 43.6845 96.8364 43.142 95.9689C43.0337 95.7519 42.8166 95.3183 43.142 95.1556C43.4674 95.047 43.6845 95.4266 43.7928 95.6436C44.2813 96.4028 44.715 97.1617 45.1491 97.8666Z" fill="#8A8A8A"/>
<path d="M42.8849 94.2306C42.7766 94.068 42.5595 94.068 42.3968 94.1763C42.2881 94.285 42.2881 94.5559 42.4508 94.6646C42.6135 94.7729 42.8306 94.7186 42.9389 94.5559C42.9389 94.4476 42.9393 94.339 42.8849 94.2306Z" fill="#8A8A8A"/>
<path d="M23.8455 121.62C23.737 121.836 23.6285 121.999 23.4116 122.108C23.1404 122.216 22.8149 121.999 22.5437 121.836C21.6216 121.131 20.6994 120.426 19.7773 119.722C18.9095 119.071 18.0416 118.42 17.5534 117.498C17.3365 117.065 17.2281 116.414 17.662 116.197C17.9332 116.089 18.2044 116.143 18.4756 116.306C19.5062 116.739 20.0486 117.553 20.8622 118.312C21.1877 118.637 21.9471 119.396 22.381 119.613C22.8149 119.776 23.0318 119.288 23.303 118.908C23.52 118.583 23.7369 117.715 23.7911 117.336C23.8996 116.523 23.954 116.36 24.1167 115.872C24.2252 115.546 24.2794 115.546 24.5506 115.384C26.0693 114.408 25.31 117.498 25.2015 118.041C24.876 119.288 24.4421 120.481 23.8455 121.62Z" fill="#B79A7D"/>
<path d="M27.8081 106.164C27.8624 105.514 28.1336 104.918 28.1879 104.267C28.1879 103.724 28.0251 103.128 27.5911 102.803C27.1572 102.477 26.5063 102.423 26.0724 102.748L26.5605 102.423C27.103 102.261 27.7538 102.098 28.242 102.423C28.5674 102.694 28.7301 103.128 28.8929 103.508C29.1098 104.104 29.3811 104.646 29.815 105.08C30.1405 105.405 30.5744 105.622 30.9541 105.893C31.3337 106.165 31.6592 106.598 31.6592 107.086C31.6592 107.466 31.3881 107.845 31.0626 108.062C30.7372 108.279 30.3574 108.388 29.9235 108.442C29.598 108.496 29.2183 108.496 28.8929 108.333C28.5674 108.171 28.2963 107.9 28.1336 107.574C27.8624 107.195 27.7539 106.653 27.8081 106.164Z" fill="#534741"/>
<path d="M15.6502 103.779C17.0062 108.334 17.386 108.063 19.5014 109.852C19.8811 110.177 20.6947 110.72 21.1286 110.937C21.888 111.37 22.8101 111.533 23.6779 111.696C23.8407 111.75 24.0576 111.75 24.2204 111.75C24.3831 111.695 24.5457 111.641 24.6542 111.533C25.0339 111.207 25.1967 110.665 25.0883 110.177C24.9798 109.581 24.6001 109.581 24.0577 109.527C23.0271 109.418 22.3762 109.147 21.3456 108.822C20.8032 108.659 20.2608 108.28 19.8269 107.9C18.6336 106.978 18.4166 107.087 17.2775 105.297C17.0606 104.972 16.6809 103.887 16.6266 103.508C16.5724 103.074 16.5181 102.695 16.5181 102.369C16.5723 102.206 16.4639 101.99 16.4639 101.881C16.4097 101.664 16.4096 101.447 16.5181 101.23C16.5723 101.122 16.6266 101.013 16.5723 100.905C16.5723 100.851 16.5181 100.851 16.5181 100.796C16.5181 100.742 16.5181 100.688 16.5181 100.688C16.5181 100.58 16.5181 100.526 16.5723 100.417C16.5723 100.363 16.6266 100.309 16.6266 100.254C16.6266 100.146 16.4638 99.8749 16.3553 99.8206C16.2468 99.7663 15.813 99.7663 15.7045 99.8749C15.6502 99.9289 15.5417 99.9832 15.4875 100.038C15.4332 100.146 15.3249 100.254 15.2706 100.363C15.2164 100.471 15.162 100.634 15.162 100.742C15.0535 101.176 15.379 101.718 15.379 102.206L15.6502 103.779Z" fill="#E2CBB7"/>
<path d="M26.2381 107.958C25.5329 108.338 24.6108 108.663 24.3396 109.368C24.1226 109.91 24.3397 110.507 24.5566 110.995C26.4008 115.17 29.1671 118.749 31.3368 122.761C31.9877 124.009 32.5844 125.256 33.1268 126.557C33.2895 126.937 33.4522 127.371 33.4522 127.804C33.4522 128.075 33.3979 128.292 33.4522 128.564C33.5606 129.269 34.4284 129.648 35.1879 129.594C35.9474 129.485 36.5981 129.052 37.2489 128.672C39.256 127.371 41.263 126.015 43.2157 124.714C43.7038 124.388 44.2463 124.009 44.409 123.412C44.5717 122.87 44.2463 122.274 43.9209 121.786C42.2936 119.4 39.9611 117.664 37.9001 115.658C35.8387 113.706 34.049 111.483 32.0419 109.477C31.1199 108.555 30.035 107.416 28.8417 106.82C27.8654 106.278 27.2144 107.47 26.2381 107.958Z" fill="#C188DB"/>
<path d="M34.9159 106.599C35.4583 106.653 36.1635 106.653 36.4889 106.22C36.7059 105.894 36.6516 105.46 36.5975 105.081C36.3805 103.292 36.1635 101.448 36.0008 99.6584C36.3805 99.6584 36.8143 99.6584 37.0313 99.9297C37.1397 100.092 37.194 100.309 37.194 100.526C37.5194 102.858 37.7364 105.189 37.8991 107.521C37.8991 107.738 37.8991 108.009 37.7908 108.172C37.6824 108.389 37.411 108.497 37.14 108.605C35.621 109.094 34.0481 109.256 32.4211 109.31C31.987 109.31 31.553 109.31 31.1733 109.094C30.9021 108.877 30.7393 108.605 30.5766 108.28C30.1969 107.467 29.8173 106.003 31.1733 106.111C32.4751 106.22 33.7227 106.437 34.9159 106.599Z" fill="#E2CBB7"/>
<path d="M35.7236 98.692C35.7779 98.5836 35.8863 98.475 35.995 98.3667C36.212 98.0954 36.1033 97.6617 36.2663 97.3905C36.429 97.1195 36.7544 96.9568 37.0798 97.0652C37.3509 97.1195 37.6223 97.3905 37.785 97.6074C37.8393 97.7158 37.9477 97.7701 37.9477 97.8787C38.002 97.987 37.9477 98.0954 37.9477 98.258C37.8393 98.8003 37.6223 99.3425 37.2969 99.8308C37.2425 99.9391 37.1882 100.047 37.0798 100.102C36.7001 100.373 36.266 100.102 36.0493 99.8308C35.9406 99.6138 35.6152 98.9089 35.7236 98.692Z" fill="#E2CBB7"/>
<path d="M31.2739 98.0316C31.6536 98.086 32.0334 97.9773 32.3589 97.869C32.7383 97.7607 33.1181 97.7063 33.4435 97.8147C33.7149 97.9233 33.8776 98.086 34.0946 98.2486C34.42 98.5739 34.7997 98.9535 34.8538 99.4415C34.8538 99.7127 34.7997 99.9294 34.8538 100.201C34.9081 100.526 35.1795 100.743 35.4505 100.906C35.7219 101.068 35.993 101.231 36.21 101.448C36.3727 101.611 36.4271 101.827 36.5897 101.99C36.9151 102.261 37.3489 102.207 37.7286 102.044C38.054 101.827 38.3254 101.502 38.5421 101.177C38.7048 100.96 38.8679 100.689 38.7592 100.418C38.7052 100.255 38.4881 100.092 38.3254 100.038C38.1627 99.9837 37.9457 99.9294 37.783 99.8211C37.6743 99.7667 37.6203 99.7127 37.6203 99.6041C37.6203 99.4958 37.7286 99.3331 37.6746 99.2245C37.6746 99.0618 37.4576 99.0078 37.2949 99.0078C37.1322 99.0078 36.9692 99.0078 36.8608 98.8992C36.6438 98.7365 36.8608 98.3569 36.8068 98.1403C36.7524 97.869 36.4267 97.7607 36.1557 97.652C35.8843 97.598 35.5589 97.4354 35.5049 97.1641C35.4505 97.0014 35.5049 96.7845 35.3962 96.6761C35.2335 96.5135 34.9624 96.6761 34.7454 96.6218C34.3657 96.5675 34.3657 96.0255 34.0946 95.8086C33.8232 95.5373 33.3351 95.5916 33.0641 95.3203C33.0097 95.2663 32.9554 95.1577 32.847 95.1037C32.7383 95.0493 32.63 94.995 32.4673 94.995C31.9791 94.941 31.491 94.8324 31.0571 94.995C30.7859 95.1037 30.5146 95.3203 30.2976 95.5373C30.0807 95.7543 29.918 95.9712 29.8638 96.2422C29.7553 96.8928 30.6773 97.9233 31.2739 98.0316Z" fill="#C6B697"/>
<path d="M44.4458 97.4481C43.4693 98.5866 42.3844 99.7255 41.0285 100.322C39.4555 101.027 37.6112 100.918 36.1465 101.786C36.0382 101.84 35.9842 101.895 35.9298 102.003C35.8755 102.057 35.8755 102.166 35.8755 102.274C35.9298 103.087 36.3096 103.847 36.906 104.389C37.2314 104.714 37.6655 104.931 38.0996 104.985C38.425 105.039 38.7504 105.039 39.0758 105.039C40.2147 104.931 41.2455 104.443 42.1134 103.738C42.9812 103.087 43.7407 102.22 44.3915 101.298C44.8796 100.593 45.3677 99.8881 45.693 99.0749C46.0728 98.2074 46.2898 97.2855 46.4525 96.3636C46.4525 96.3093 46.4525 96.2553 46.4525 96.2009C46.2898 95.8757 45.4763 95.984 45.2593 96.2009C44.9339 96.5806 44.7712 97.1228 44.4458 97.4481Z" fill="#DD6C70"/>
<path d="M32.8564 103.393C32.6394 103.447 32.368 103.556 32.1512 103.718C31.88 103.935 31.88 104.261 31.88 104.532C31.8258 106.375 32.4223 108.056 33.0191 109.683C33.8869 112.015 34.4837 114.292 35.7853 116.352C36.1107 116.84 36.4905 117.383 37.1956 117.383C37.5753 117.383 37.9551 117.22 38.2805 117.112C39.7991 116.461 41.4807 115.539 42.8367 114.509C43.4334 114.075 44.0299 113.641 44.5723 113.153C45.1691 112.557 45.7116 111.852 45.7116 111.147C45.7116 110.55 45.3862 110.062 45.0064 109.629C43.5961 107.948 42.1315 106.375 40.5042 104.857C39.4197 103.827 38.3345 102.851 37.1956 101.875C36.7075 101.441 36.0567 101.007 35.2972 101.658C34.5377 102.363 33.9413 103.013 32.8564 103.393Z" fill="#DD6C70"/>
<path d="M33.599 102.587C33.9247 102.425 34.3041 102.262 34.5212 102.045C35.2263 101.394 35.172 100.31 35.172 99.3883C35.1176 98.5204 34.3041 97.3819 33.7077 96.7313C33.4906 96.5143 33.3279 96.2973 33.0566 96.1347C32.5141 95.9177 31.9175 96.1347 31.4293 96.406C30.5615 96.8939 29.7479 97.4902 29.314 98.3578C28.2292 100.418 31.4837 103.618 33.599 102.587Z" fill="#F9E9DE"/>
<path d="M31.0943 106.383C30.4977 110.178 31.691 113.974 32.8302 117.607C32.8302 117.661 32.8842 117.77 32.9386 117.824C33.1013 117.932 33.6437 117.715 33.9151 117.661C34.0235 117.607 34.1318 117.499 34.0778 117.39C33.8064 115.601 33.5354 113.595 33.6981 111.534C33.8064 109.907 33.6977 108.498 34.6199 107.033C34.9997 106.437 34.9456 106.057 34.5116 105.461C34.0775 104.864 33.3183 104.485 32.6132 104.539C31.5825 104.593 31.2571 105.569 31.0943 106.383Z" fill="#DD6C70"/>
<path d="M45.2732 95.3776C45.1649 95.0523 45.0565 94.7814 44.9478 94.4557C44.9478 94.3474 44.8938 94.2931 44.9478 94.1848C44.9478 94.1305 45.0022 94.0764 45.0562 94.0221C45.2192 93.7508 45.0022 93.3172 45.1649 93.0459C45.2732 92.8833 45.4903 92.8293 45.653 92.8833C45.924 92.9376 46.2497 93.1002 46.3581 93.3172C46.5751 93.6425 46.5751 94.0221 46.5208 94.3474C46.4665 94.727 46.4124 95.0523 46.4668 95.4319C46.4668 95.5946 46.5208 95.7029 46.5208 95.8656C46.5208 96.0282 46.4665 96.1912 46.3581 96.2452C46.1954 96.3538 46.0327 96.3538 45.87 96.2995C45.653 96.2452 45.3819 96.2995 45.3819 96.0285C45.3819 95.8656 45.3819 95.6489 45.2732 95.3776Z" fill="#F9E9DE"/>
<path d="M34.3145 118.486C34.3689 118.54 34.3689 118.648 34.3689 118.703C34.3689 118.811 34.3689 118.865 34.2602 118.92C34.2062 118.92 34.2059 118.974 34.1519 118.974C34.0975 119.028 34.0975 119.082 34.0975 119.136C34.1519 119.353 34.3145 119.57 34.2602 119.787C34.2062 119.95 34.0435 120.058 33.8808 120.113C33.7178 120.167 33.5551 120.113 33.4467 120.004C33.338 119.896 33.284 119.733 33.2297 119.57C33.1213 119.082 33.2297 118.486 33.0126 118.052C32.9586 117.998 32.9586 117.889 32.9586 117.835C32.9586 117.726 33.1213 117.618 33.2297 117.618C33.3924 117.564 33.7721 117.401 33.9348 117.564C34.0435 117.672 34.0435 117.835 34.0975 117.943C34.2062 118.16 34.2602 118.323 34.3145 118.486Z" fill="#F9E9DE"/>
<path d="M36.2521 103.457C36.5775 104.27 36.9029 105.084 37.2826 105.952C37.3369 106.06 37.391 106.222 37.3369 106.331C37.2283 106.493 37.0115 106.439 36.7945 106.385C35.8183 105.952 35.1672 105.084 34.2994 104.433C33.9196 104.162 33.5402 103.999 33.2145 103.674C33.1605 103.62 33.1061 103.566 33.1061 103.457C33.0518 103.295 33.2688 103.132 33.3772 103.078C33.5942 102.915 33.8656 102.806 34.0826 102.644C34.2453 102.535 34.4621 102.373 34.5707 102.264C34.7334 102.047 34.8961 101.722 35.1132 101.613C35.3299 101.505 35.3842 101.668 35.5469 101.83C35.8723 102.318 36.0894 102.915 36.2521 103.457Z" fill="#F7F7F7"/>
<path d="M36.0447 101.771C36.0991 101.88 36.0447 101.988 36.0447 102.042C36.0991 102.151 36.2078 102.151 36.3161 102.151C36.4245 102.097 36.5332 102.042 36.6415 102.042C36.7502 102.042 36.8585 102.151 36.8585 102.259C36.8585 102.313 36.8042 102.313 36.7499 102.367C36.6415 102.476 36.5872 102.747 36.7499 102.856C36.8585 102.91 36.9669 102.91 37.0753 102.964C37.1839 103.018 37.2923 103.127 37.2383 103.235C37.2383 103.289 37.1839 103.289 37.1296 103.289C37.0212 103.344 36.9669 103.561 37.0753 103.669C37.1296 103.777 37.2923 103.777 37.401 103.832C37.5093 103.886 37.618 103.94 37.618 104.049C37.618 104.157 37.5093 104.266 37.5093 104.374C37.5093 104.645 37.9974 104.645 37.9974 104.862C37.9974 104.97 37.8347 105.079 37.8347 105.187C37.8347 105.35 37.9974 105.404 38.1605 105.404C38.3232 105.404 38.4859 105.513 38.4859 105.621C38.4859 105.729 38.3772 105.784 38.2688 105.838C38.1601 105.892 38.0518 106.001 38.1061 106.109C38.1601 106.218 38.2688 106.218 38.3232 106.272C38.4315 106.434 38.2145 106.651 38.2145 106.868C38.2145 107.139 38.6486 107.139 38.7569 107.356C38.8653 107.519 38.7569 107.79 38.8653 107.953C38.9196 108.115 39.1367 108.17 39.191 108.332C39.191 108.386 39.1907 108.441 39.245 108.441C39.2994 108.549 39.3537 108.603 39.4621 108.658C39.5704 108.712 39.6791 108.875 39.7331 108.983C39.7331 109.146 39.6248 109.308 39.5164 109.308C39.4077 109.308 39.2994 109.2 39.245 109.091C39.1907 108.983 39.1907 108.875 39.0823 108.766C38.9196 108.549 38.5942 108.495 38.4315 108.278C38.3772 108.169 38.3772 108.007 38.2688 107.844C38.1601 107.627 37.8347 107.573 37.7807 107.356C37.7264 107.248 37.7804 107.085 37.7264 106.923C37.672 106.706 37.401 106.543 37.2923 106.38C37.2383 106.272 37.1839 106.163 37.1296 106.055C37.0212 105.675 36.8585 105.296 36.7499 104.916C36.6959 104.808 36.6959 104.753 36.6415 104.645C36.5872 104.591 36.5332 104.482 36.4788 104.428C36.2618 104.157 36.2078 103.832 36.0991 103.506C35.9907 103.072 35.7737 102.693 35.5566 102.313C35.4483 102.151 35.2312 101.826 35.3939 101.609C35.5023 101.554 35.9907 101.554 36.0447 101.771Z" fill="white"/>
<path d="M32.7322 103.89C32.7322 104.161 33.0036 104.324 33.2206 104.432C33.2746 104.432 33.329 104.487 33.3833 104.487C33.546 104.649 33.383 104.975 33.4917 105.137C33.6543 105.3 34.0341 105.083 34.1968 105.191C34.3051 105.3 34.3051 105.462 34.3051 105.571C34.3051 105.734 34.3595 105.896 34.4678 105.951C34.6849 106.005 34.9019 105.625 35.119 105.788C35.2273 105.842 35.2273 106.005 35.2817 106.167C35.336 106.33 35.4444 106.493 35.5527 106.493C35.7154 106.493 35.8781 106.33 36.0408 106.33C36.1495 106.33 36.2579 106.493 36.3122 106.547C36.3665 106.656 36.4749 106.764 36.5833 106.71C36.6376 106.71 36.6376 106.71 36.6919 106.71C36.746 106.71 36.7463 106.764 36.8003 106.764C36.909 106.872 36.963 107.035 37.0717 107.144C37.18 107.035 37.3427 107.035 37.3971 107.144C37.4511 107.198 37.4511 107.252 37.5054 107.306C37.5598 107.361 37.6681 107.306 37.7225 107.252C37.7765 107.198 37.7768 107.089 37.7768 107.035C37.7768 106.818 37.7225 106.547 37.5054 106.384C37.3427 106.276 37.18 106.222 37.0173 106.167C36.6919 106.059 36.4206 105.842 36.2035 105.625C35.5527 105.083 34.8476 104.595 34.1424 104.107C33.817 103.89 33.4917 103.619 33.1663 103.456C33.0036 103.402 32.6782 103.619 32.7322 103.89Z" fill="white"/>
<path d="M30.1789 99.4867C30.0162 99.8663 29.9618 100.3 30.0703 100.68C30.233 101.167 30.7213 101.547 31.2094 101.764C31.6976 101.981 32.24 102.144 32.6739 102.469C32.891 102.632 33.0537 102.794 33.2164 102.957C33.4874 103.282 33.7588 103.607 33.8128 103.987C33.9215 104.367 33.8131 104.855 33.5418 105.126C33.2164 105.397 32.7279 105.397 32.4569 105.072C32.2942 104.909 32.24 104.638 32.023 104.584C31.7518 104.475 31.4264 104.8 31.2094 104.638C30.9925 104.475 31.2094 104.095 31.1009 103.824C30.9381 103.445 30.3415 103.662 30.0703 103.391C29.8533 103.12 29.9619 102.686 29.6907 102.469C29.5822 102.36 29.3651 102.36 29.2024 102.36C29.0397 102.306 28.877 102.252 28.877 102.089C28.877 102.035 28.877 101.981 28.877 101.927C28.877 101.764 28.7686 101.655 28.6601 101.493C28.1719 100.897 27.955 100.137 27.955 99.378C27.955 99.1071 28.0091 98.7818 28.0634 98.5105C28.1176 98.1852 28.2262 97.8599 28.3347 97.5886C28.6059 97.0463 28.9856 96.6127 29.528 96.3417C29.745 96.2331 29.9619 96.1248 30.1789 96.1248C30.8297 96.0705 31.5349 96.7754 31.5349 97.426C31.4806 98.2395 30.5586 98.6191 30.1789 99.4867Z" fill="#C6B697"/>
<path d="M21.5524 104.487C21.444 104.162 21.3354 103.783 21.2811 103.403C21.1184 102.156 21.7151 99.9871 23.2881 99.9871C23.6677 99.9871 23.9933 100.095 24.3729 100.204C24.7526 100.312 25.0781 100.475 25.4035 100.692C26.0002 101.072 26.5425 101.614 26.868 102.264C27.1392 102.861 27.1935 103.62 27.2477 104.271C27.302 105.138 27.302 106.114 26.7596 106.765C26.0544 107.687 24.5899 107.795 23.5593 107.199C22.5288 106.711 21.8779 105.626 21.5524 104.487Z" fill="#E2CBB7"/>
<path d="M23.6208 101.237C24.109 101.509 24.6515 101.617 25.1939 101.725C25.6278 101.78 26.0617 101.888 26.3872 102.159C26.6584 102.376 26.7668 102.756 27.0381 102.973C27.255 102.864 27.3094 102.593 27.3094 102.322C27.3094 101.942 27.3094 101.563 27.1466 101.183C27.0382 100.912 26.8754 100.695 26.7126 100.479C26.3872 100.045 26.0618 99.6107 25.5736 99.3397C25.0854 99.0687 24.4887 98.9601 23.9463 99.0687C23.5123 99.1771 22.753 99.5567 22.5902 100.045C22.4275 100.533 23.1869 101.021 23.6208 101.237Z" fill="#534741"/>
<path d="M20.1667 111.534C20.1667 111.1 20.2752 110.666 20.2752 110.286C20.3837 109.094 20.0582 107.955 19.8955 106.816C19.8412 106.328 19.8413 105.786 20.0583 105.352C20.2211 105.081 20.6006 104.81 20.926 104.81C20.8718 104.701 20.8176 104.647 20.7633 104.538C20.2209 103.671 19.8412 102.586 20.1125 101.556C20.3294 100.526 21.2515 99.6584 22.2821 99.6584C22.9872 99.6584 23.8009 100.363 23.2585 101.068C23.0958 101.285 22.7703 101.448 22.5534 101.665C22.2279 101.99 22.0109 102.424 21.8482 102.803C21.577 103.508 21.6854 104.322 22.1194 104.918C22.0109 104.864 21.9024 104.81 21.7939 104.701C21.6854 104.918 21.9567 105.189 22.1737 105.352C22.5533 105.732 22.7704 106.22 22.9331 106.762C22.4449 106.328 21.9567 105.894 21.5228 105.46C21.5228 105.84 21.4143 106.328 21.3601 106.599C21.2516 108.117 21.9025 109.527 22.7704 110.774C23.0416 111.154 23.3127 111.479 23.367 111.967C23.4754 112.564 23.0958 113.16 22.5534 113.377C22.011 113.594 21.3601 113.486 20.8719 113.106C20.438 112.726 20.221 112.13 20.1667 111.534Z" fill="#534741"/>
<path d="M14.4036 115.654C13.9154 115.6 13.373 115.383 12.8848 115.004C11.9628 114.245 11.0948 113.377 10.6066 112.293C10.0642 111.045 10.0643 109.148 11.3118 108.28C12.7221 107.25 14.3493 108.822 15.3799 109.907C16.1935 110.774 16.7901 111.859 16.8443 113.051C16.7901 114.787 15.7054 115.763 14.4036 115.654Z" fill="#B79A7D"/>
<path d="M12.8936 108.891C12.8936 109.054 12.785 109.271 12.6223 109.325C12.4596 109.379 12.2427 109.271 12.1342 109.108C12.1884 109.596 11.6461 110.03 11.2122 109.867C11.3207 109.759 11.3748 110.03 11.3206 110.138C11.1579 110.355 10.8866 110.572 10.6154 110.572C10.8324 110.572 10.8867 110.898 10.8867 111.114C10.8867 111.277 10.8324 111.44 10.8324 111.602C11.1579 111.765 11.1036 112.361 10.7782 112.416C11.0493 112.361 11.3205 112.633 11.2663 112.904C11.4833 112.958 11.7004 113.121 11.9173 113.283C11.8088 113.392 11.863 113.609 12.0258 113.609C11.9715 113.717 11.8631 113.825 11.7003 113.88C11.7546 113.825 11.8087 113.988 11.7544 114.042C11.7002 114.097 11.5918 114.042 11.5376 114.042C11.3207 113.934 11.1578 113.717 11.1036 113.5C10.8324 113.555 10.6154 113.283 10.4527 113.066C10.3442 112.958 10.2901 112.85 10.1816 112.741C10.0731 112.633 10.0188 112.524 9.96456 112.416C9.96456 112.307 10.0188 112.145 10.1273 112.09C9.85607 112.199 9.47647 111.928 9.53071 111.656C9.09676 111.765 8.66274 111.169 8.93396 110.789C8.66274 110.626 8.55429 110.301 8.60853 110.03C8.66278 109.759 8.93396 109.488 9.25939 109.488C9.25939 109.542 9.15094 109.596 9.09669 109.542C9.04245 109.488 9.04239 109.433 9.04239 109.325C9.09663 108.837 9.4764 108.403 9.96456 108.349C9.96456 107.915 10.3984 107.536 10.7782 107.536C10.7239 107.59 10.6156 107.644 10.5613 107.59C10.6156 107.319 10.7782 106.993 10.9952 106.885C11.2664 106.722 11.6461 106.831 11.7003 107.102C11.9715 106.668 12.7308 106.722 12.9478 107.21C13.1647 107.048 13.4902 106.939 13.8156 106.993C14.0869 107.047 14.3581 107.373 14.2497 107.698C14.5209 107.536 14.9547 107.536 15.1717 107.807C15.3886 108.078 15.4429 108.457 15.226 108.728C15.5514 108.728 15.9312 108.891 16.1482 109.162C16.1482 109.325 16.0939 109.488 15.9854 109.596C16.0939 109.596 16.148 109.65 16.2023 109.759C16.0938 109.976 16.0395 110.193 15.8225 110.301C15.6056 110.409 15.2802 110.247 15.3344 110.03C14.9547 110.084 14.575 109.813 14.4665 109.433C14.358 109.488 14.3039 109.488 14.1954 109.488C14.0326 109.379 13.8157 109.162 13.9242 108.999C13.87 109.216 13.5988 109.379 13.3818 109.325C13.0563 109.379 12.8936 109.162 12.8936 108.891Z" fill="#333333"/>
<path d="M6.91793 108.937C6.75523 109.154 7.02642 109.425 7.24339 109.425C7.46034 109.425 7.67734 109.209 7.78583 108.992C7.67734 109.1 7.73165 109.263 7.84011 109.317C8.16557 109.209 8.43669 108.937 8.59942 108.612C8.49094 108.612 8.49094 108.775 8.59942 108.829C8.65367 108.883 8.76206 108.883 8.87054 108.829C9.14176 108.721 9.30456 108.449 9.30456 108.178C9.08762 108.232 9.14189 108.612 9.35887 108.666C9.57584 108.721 9.79265 108.558 9.90114 108.395C9.95539 108.341 9.95545 108.287 9.95545 108.232C9.84696 108.287 9.90124 108.504 10.0097 108.558C10.1182 108.612 10.2809 108.558 10.3352 108.449C10.3894 108.341 10.4436 108.232 10.4436 108.07C10.4436 108.124 10.498 108.232 10.5522 108.232C10.7691 108.124 10.8234 107.853 10.7149 107.636C10.7149 107.582 10.6606 107.582 10.6063 107.582C10.769 107.365 10.8233 107.039 10.769 106.768C10.986 106.768 11.2031 106.552 11.2031 106.335C11.3658 106.28 11.4742 106.172 11.5285 106.009C11.637 106.064 11.7454 106.009 11.8539 105.955C11.9082 105.847 11.9623 105.738 11.9623 105.63C11.9623 105.575 11.9625 105.521 11.9082 105.467C11.854 105.467 11.7996 105.521 11.7996 105.521C12.0166 105.359 12.1251 105.033 11.9623 104.762C11.9081 104.816 11.8539 104.87 11.8539 104.979C12.0166 104.87 12.0166 104.599 11.8539 104.491C11.6912 104.382 11.42 104.437 11.3658 104.599C11.42 104.437 11.3658 104.274 11.2031 104.111C11.1488 104.111 11.0403 104.165 10.986 104.165C11.0945 104.003 10.9319 103.678 10.7149 103.732C10.4979 103.732 10.3351 104.003 10.4436 104.22C10.5521 104.057 10.3894 103.786 10.1725 103.786C9.95548 103.786 9.84696 104.057 9.95545 104.22C9.84696 104.111 9.6842 104.057 9.57571 104.165C9.46722 104.22 9.41311 104.437 9.5216 104.545C9.41311 104.437 9.25028 104.328 9.08755 104.382C8.92485 104.437 8.92485 104.708 9.08755 104.762C9.03331 104.545 8.70794 104.491 8.491 104.654C8.32827 104.816 8.27393 105.033 8.21968 105.25C8.1112 105.142 7.9486 105.142 7.84011 105.196C7.73165 105.25 7.67734 105.467 7.78583 105.575C7.84008 105.413 7.67725 105.304 7.51452 105.304C7.35179 105.304 7.29757 105.521 7.35182 105.63C7.18909 105.521 6.97214 105.575 6.86366 105.684C6.75517 105.792 6.70106 106.009 6.80951 106.172C6.7553 106.064 6.59257 106.064 6.48408 106.118C6.37559 106.172 6.26704 106.28 6.2128 106.335C6.10431 106.443 5.99576 106.552 5.99576 106.714C5.99576 106.877 6.15859 106.985 6.26707 106.931C6.10434 107.039 5.94158 107.148 5.88733 107.311C5.88733 107.473 6.15855 107.69 6.2128 107.527C5.99582 107.636 5.83312 107.853 5.88733 108.07C5.94158 108.287 6.21276 108.449 6.3755 108.287C6.21276 108.395 6.21273 108.666 6.32122 108.775C6.53816 109.046 6.75523 109.1 6.91793 108.937Z" fill="#333333"/>
<path d="M14.0257 117.392C13.9172 117.446 13.7545 117.501 13.7002 117.609C13.4833 117.826 13.5374 118.151 13.6459 118.368C13.9171 119.29 14.1342 120.158 14.4054 121.079C14.6223 121.784 14.8392 122.489 15.0019 123.194C15.5986 125.363 16.2496 127.532 17.1175 129.647C17.3886 130.352 17.714 131.003 18.0394 131.653C18.0937 131.707 18.0937 131.816 18.2022 131.816C18.3107 131.87 18.4191 131.816 18.5276 131.816C21.6736 131.003 24.8739 129.538 26.9351 127.044C26.0672 125.743 25.1452 124.441 24.2773 123.14C23.518 122.001 22.7585 120.862 21.8907 119.778C20.8059 118.422 19.6125 117.175 18.3107 115.982C18.0938 115.82 17.6599 115.169 17.3345 115.223C17.009 115.223 16.7377 115.711 16.5207 115.928C15.7613 116.633 14.8393 117.013 14.0257 117.392Z" fill="#AA4A4D"/>
<path d="M13.3561 118.637C13.6816 121.294 14.0613 123.951 14.3867 126.608C14.441 126.879 14.441 127.151 14.6037 127.367C14.8207 127.584 15.0919 127.693 15.4173 127.801C17.153 128.344 18.9429 128.831 20.7871 128.614C21.0583 128.56 21.3838 128.506 21.6007 128.344C21.8177 128.181 21.9804 127.801 21.8177 127.53C21.655 127.151 21.1668 127.151 20.7328 127.151C19.5938 127.151 18.4548 126.934 17.4242 126.554C16.9903 126.391 16.6105 126.229 16.3393 125.849C16.0681 125.47 15.9597 124.982 15.9055 124.494C15.7427 122.867 15.6885 121.24 15.58 119.668C15.5258 119.071 15.4173 118.637 14.8749 118.366C14.3867 118.041 13.2476 117.824 13.3561 118.637Z" fill="#B79A7D"/>
<path d="M11.3071 110.841C11.4699 110.896 11.5784 111.004 11.6869 111.167C11.7411 111.275 11.7411 111.492 11.6326 111.601C11.958 111.601 12.2293 111.98 12.0666 112.251C12.3378 112.306 12.4462 112.631 12.3377 112.848C12.5547 112.902 12.6632 113.227 12.5005 113.39C12.6632 113.39 12.826 113.552 12.8802 113.715C12.8802 113.878 12.7717 114.095 12.5547 114.095C12.6632 114.149 12.826 114.149 12.8802 114.312C12.9344 114.42 12.9343 114.637 12.7716 114.637C13.0428 114.691 13.2055 114.963 13.0971 115.179C12.9886 115.396 12.6631 115.45 12.4462 115.288C12.4462 115.45 12.2835 115.559 12.1207 115.559C11.958 115.559 11.7954 115.45 11.6869 115.342C11.5241 115.45 11.3614 115.504 11.1987 115.504C11.036 115.504 10.819 115.342 10.8733 115.179C10.7648 115.288 10.5478 115.288 10.4393 115.179C10.2765 115.125 10.2223 114.908 10.2223 114.8C10.0053 114.854 9.78841 114.8 9.62568 114.637C9.46295 114.474 9.51713 114.203 9.7341 114.095C9.40867 114.149 9.08331 113.932 8.97482 113.607C8.97482 113.498 8.97476 113.39 9.08324 113.444C8.86627 113.444 8.64926 113.336 8.54081 113.119C8.43232 112.956 8.48666 112.685 8.64939 112.522C8.43242 112.522 8.26965 112.36 8.26965 112.197C8.26965 111.98 8.37811 111.817 8.59508 111.763C8.4866 111.655 8.43242 111.546 8.32396 111.438C8.26972 111.384 8.26965 111.329 8.26965 111.329C8.26965 111.275 8.32396 111.275 8.32396 111.221C8.43242 111.167 8.59502 111.058 8.70351 111.058C8.59502 110.95 8.59515 110.787 8.64939 110.679C8.70364 110.57 8.92045 110.516 9.02894 110.57C9.19167 110.028 9.95105 109.811 10.385 110.082C10.5477 109.703 10.9275 109.974 11.1444 110.136C11.2529 110.245 11.3614 110.407 11.3614 110.516C11.4699 110.516 11.4156 110.896 11.3071 110.841Z" fill="#333333"/>
<defs>
<linearGradient id="paint0_linear_39_137" x1="83.9092" y1="526.61" x2="521.154" y2="526.61" gradientUnits="userSpaceOnUse">
<stop stop-color="#4D4D4D"/>
<stop offset="1"/>
</linearGradient>
<linearGradient id="paint1_linear_39_137" x1="83.9092" y1="526.61" x2="521.154" y2="526.61" gradientUnits="userSpaceOnUse">
<stop/>
<stop offset="1"/>
</linearGradient>
</defs>
</svg>
